<svg xmlns="http://www.w3.org/2000/svg" xmlns:xlink="http://www.w3.org/1999/xlink" width="147" height="90" viewBox="0 0 147 90">
    <defs>
        <path id="a" d="M0 18.72C12.537 4.133 21.415-1.824 26.635.846c7.83 4.006 3.9 14.028 3.51 25.93-.381 11.664 2.151 19.033-3.51 25.512C22.86 56.61 13.982 50.096 0 32.75v-14.03z"/>
        <path id="c" d="M.704 22.582C-1.358 15.282 9.55-.224 14.78.188 20.008.6 19.79 6.053 21.867 7.8c5.233 4.404 8.227 5.883 8.227 8.183 0 3.212-2.742 6.315-8.227 9.307C9.132 28.351 2.077 27.448.704 22.582z"/>
        <path id="e" d="M.554 24C-3.759 42.69 17.14 53.58 62.066 51.6c44.928-1.98 48.103-21.584 48.103-27.6 0-6.016-10.617-24-48.103-24C24.581 0 4.868 5.31.554 24z"/>
        <path id="g" d="M2.681 2.4c-2.631 1.8-5.823 19.51 8.6 19.51 14.425 0 6.556-16.09 2.238-19.51C9.201-1.02 5.312.6 2.681 2.4z"/>
        <path id="i" d="M.157 1.742c-1.402 2.535 6.95 12.563 11.289 11.4 4.339-1.163 4.755-9.298 2.086-11.4C10.864-.359 1.56-.792.157 1.742z"/>
        <path id="k" d="M.305 6C-1.402 9.51 5.045 20.473 11.4 20.71c6.356.238 11.76-8.774 12.972-12.537C25.585 4.409 19.945.23 18 .23c-1.945 0-3.683 2.31-8.246 3.459C5.192 4.84 1.027 4.514.304 6z"/>
    </defs>
    <g fill="none" fill-rule="evenodd" transform="matrix(-1 0 0 1 147 0)">
        <g transform="translate(19.8 5.4)">
            <g transform="translate(95.4 20.4)">
                <mask id="b" fill="#fff">
                    <use xlink:href="#a"/>
                </mask>
                <use fill="#8E8A82" xlink:href="#a"/>
                <path stroke="#6C665E" stroke-width=".6" d="M6.6 15.204c5.029-4.54 9.534-7.796 13.517-9.77 3.982-1.975 8.488-3.186 13.516-3.634" mask="url(#b)"/>
                <path stroke="#6C665E" stroke-width=".6" d="M6.6 50.604c5.029-4.54 9.534-7.796 13.517-9.77 3.982-1.975 8.488-3.186 13.516-3.634" mask="url(#b)" transform="matrix(1 0 0 -1 0 87.804)"/>
                <path stroke="#6C665E" stroke-width=".6" d="M10.974 18.6c2.944-2.862 6.391-5.062 10.342-6.6 3.95-1.538 8.724-2.538 14.32-3" mask="url(#b)"/>
                <path stroke="#6C665E" stroke-width=".6" d="M10.974 43.8c2.944-2.862 6.391-5.062 10.342-6.6 3.95-1.538 8.724-2.538 14.32-3" mask="url(#b)" transform="matrix(1 0 0 -1 0 78)"/>
                <path stroke="#6C665E" stroke-width=".6" d="M12.6 23.218c3.333-1.591 6.681-2.73 10.044-3.418 3.363-.687 7.684-1.115 12.965-1.285" mask="url(#b)"/>
                <path stroke="#6C665E" stroke-width=".6" d="M12.6 34.702c3.397-1.61 6.777-2.76 10.14-3.447 3.363-.687 7.652-1.105 12.869-1.255" mask="url(#b)" transform="matrix(1 0 0 -1 0 64.702)"/>
                <path stroke="#6C665E" stroke-width=".6" d="M12.6 26.474l23.036-.074" mask="url(#b)"/>
            </g>
            <g transform="translate(52.2)">
                <mask id="d" fill="#fff">
                    <use xlink:href="#c"/>
                </mask>
                <use fill="#8E8A82" xlink:href="#c"/>
                <path stroke="#6C665E" stroke-width=".6" d="M3 23.003c1.264-4.164 3.868-7.96 7.81-11.387C14.755 8.19 19.59 5.517 25.32 3.6" mask="url(#d)"/>
                <path stroke="#6C665E" stroke-width=".6" d="M9.042 25.661c1.264-4.163 3.868-7.958 7.81-11.386 3.943-3.427 8.78-6.1 14.51-8.016" mask="url(#d)" transform="rotate(8 20.202 15.96)"/>
                <path stroke="#6C665E" stroke-width=".6" d="M15.642 28.661c1.264-4.163 3.868-7.958 7.81-11.386 3.943-3.427 8.78-6.1 14.51-8.016" mask="url(#d)" transform="rotate(18 26.802 18.96)"/>
            </g>
            <path fill="#8E8A82" d="M82.294 26.4c1.704-5.457 4.034-8.185 6.99-8.185 1.735 0 4.153 1.219 4.153 4.383 0 2.11-2.74 4.01-8.221 5.702l-2.922-1.9z"/>
            <g transform="translate(0 21.6)">
                <mask id="f" fill="#fff">
                    <use xlink:href="#e"/>
                </mask>
                <use fill="#B4ABA2" xlink:href="#e"/>
                <path fill="#7BA086" d="M-3.76 23.513c-4.036 4.286 2.035 6.249 18.212 5.887 24.265-.543 17.586-6.828 44.86-7.298 18.182-.313 36.218.52 54.11 2.498.938-19.258-17.099-28.586-54.11-27.985-37.012.6-58.036 9.567-63.073 26.898z" mask="url(#f)"/>
                <circle cx="13.2" cy="20.4" r="3" fill="#2E2B27" mask="url(#f)"/>
                <path stroke="#2E2B27" stroke-linecap="round" stroke-width="3" d="M.09 29.68c1.252.713 3.129 1.02 5.628.92 2.5-.1 4.886-.98 7.158-2.639" mask="url(#f)"/>
            </g>
            <g transform="translate(29.4 62.4)">
                <mask id="h" fill="#fff">
                    <use xlink:href="#g"/>
                </mask>
                <use fill="#B17D20" xlink:href="#g"/>
                <path stroke="#8B6014" stroke-width=".6" d="M4.86.6c-.88 4.467-.88 9.184 0 14.15.882 4.967 2.26 8.023 4.137 9.166" mask="url(#h)"/>
                <path stroke="#8B6014" stroke-width=".6" d="M9.032.244c-.88 4.467-.88 9.184 0 14.15.881 4.967 2.26 8.023 4.137 9.166" mask="url(#h)" transform="rotate(-12 10.77 11.902)"/>
                <path stroke="#8B6014" stroke-width=".6" d="M13.653-2.039c-.88 4.467-.88 9.184 0 14.151.881 4.967 2.26 8.022 4.137 9.166" mask="url(#h)" transform="rotate(-28 15.391 9.62)"/>
            </g>
            <g transform="translate(57.6 69)">
                <mask id="j" fill="#fff">
                    <use xlink:href="#i"/>
                </mask>
                <use fill="#8E8A82" xlink:href="#i"/>
                <path stroke="#6C665E" stroke-width=".6" d="M1.8-.904c1.034 3.312 2.834 6.018 5.4 8.117 2.566 2.098 5.766 3.482 9.6 4.15M5.753-.78C7.18 1.311 8.861 2.933 10.8 4.087c1.94 1.153 4.393 1.991 7.36 2.513" mask="url(#j)"/>
            </g>
            <g transform="translate(77.4 63.6)">
                <mask id="l" fill="#fff">
                    <use xlink:href="#k"/>
                </mask>
                <use fill="#8E8A82" xlink:href="#k"/>
                <path stroke="#6C665E" stroke-width=".6" d="M2.4 4.2c.382 2.732 2.05 5.633 5.004 8.704C10.358 15.975 13.89 18.48 18 20.42" mask="url(#l)"/>
                <path stroke="#6C665E" stroke-width=".6" d="M7.29 2.431c.382 2.732 2.05 5.633 5.003 8.704 2.954 3.072 6.486 5.577 10.597 7.516" mask="url(#l)" transform="rotate(-10 15.09 10.54)"/>
                <path stroke="#6C665E" stroke-width=".6" d="M11.303-.821c.382 2.731 2.05 5.633 5.004 8.704 2.954 3.071 6.486 5.576 10.596 7.515" mask="url(#l)" transform="rotate(-20 19.103 7.288)"/>
                <path stroke="#6C665E" stroke-width=".6" d="M14.903-5.021c.382 2.731 2.05 5.633 5.004 8.704 2.954 3.071 6.486 5.576 10.596 7.515" mask="url(#l)" transform="rotate(-36 22.703 3.088)"/>
            </g>
            <path fill="#FE6F61" d="M33.064 45.83c0-5.004 2.478-7.295 28.383-7.295 25.904 0 43.354 1.777 43.354 7.024 0 5.246-29.865 5.367-43.354 5.367-13.49 0-28.383-.09-28.383-5.095z"/>
            <path fill="#262F56" d="M41.701 37.2c-2.718 0-4.501 3.479-4.501 7.913s.58 9.102 4.501 9.102c3.922 0 5.187-5.23 5.187-9.363 0-4.132-2.47-7.652-5.187-7.652zM83.701 38.4c-2.718 0-4.501 2.988-4.501 6.797 0 3.809.58 7.818 4.501 7.818 3.922 0 5.187-4.493 5.187-8.042 0-3.55-2.47-6.573-5.187-6.573z"/>
            <path fill="#15979D" d="M50.186 25.2c-2.045 0-3.386 1.516-3.386 3.448 0 1.933.436 3.967 3.386 3.967s3.902-2.28 3.902-4.08c0-1.8-1.857-3.335-3.902-3.335zM69.86 25.8c1.707 0 2.828 1.27 2.828 2.89s-.364 3.325-2.829 3.325c-2.464 0-3.259-1.91-3.259-3.42s1.551-2.795 3.26-2.795z"/>
            <path fill="#A59D94" d="M75.86 60.6c1.707 0 2.828 1.27 2.828 2.89s-.364 3.325-2.829 3.325c-2.464 0-3.259-1.91-3.259-3.42s1.551-2.795 3.26-2.795z"/>
            <circle cx="21.3" cy="28.5" r="1" fill="#15979D"/>
            <circle cx="69.3" cy="65.7" r="1" fill="#A59D94"/>
            <circle cx="28.5" cy="26.1" r="1" fill="#15979D"/>
            <circle cx="56.1" cy="24.9" r="1" fill="#15979D"/>
            <circle cx="60.3" cy="32.7" r="1" fill="#15979D"/>
            <circle cx="75.3" cy="25.5" r="1" fill="#15979D"/>
            <circle cx="78.9" cy="32.1" r="1" fill="#15979D"/>
            <circle cx="96.3" cy="33.3" r="1" fill="#15979D"/>
            <circle cx="42.3" cy="30.9" r="1" fill="#15979D"/>
            <circle cx="44.7" cy="62.7" r="1" fill="#A59D94"/>
            <circle cx="35.4" cy="31.8" r="3.6" fill="#15979D"/>
            <circle cx="88.8" cy="31.2" r="2.4" fill="#15979D"/>
            <circle cx="52.8" cy="69" r="2.4" fill="#A59D94"/>
            <circle cx="61.8" cy="63" r="3" fill="#A59D94"/>
            <path fill="#262F56" d="M55.244 36.6c2.718 0 4.844 4.306 4.844 8.74 0 4.435-1.555 9.102-4.501 9.102-2.947 0-5.187-5.23-5.187-9.363 0-4.131 2.126-8.479 4.844-8.479zM70.04 36.005c5.784-.244 6.18 7.98 5.444 12.09-.735 4.11-2.886 5.752-5.1 5.752-2.215 0-4.426-1.642-5.197-5.752-.771-4.11-.93-11.845 4.854-12.09zM98.543 39.004c5.15-.163 5.502 5.297 4.847 8.025-.654 2.728-2.57 3.818-4.542 3.818s-3.941-1.09-4.628-3.818c-.686-2.728-.828-7.863 4.323-8.025z"/>
        </g>
        <circle cx="12.6" cy="42.6" r="1.8" fill="#FFF" opacity=".47"/>
        <circle cx="8.4" cy="33" r="3" fill="#FFF" opacity=".47"/>
        <circle cx="6.6" cy="6.6" r="6.6" fill="#FFF" opacity=".47"/>
        <circle cx="6.6" cy="21.6" r="3.6" fill="#FFF" opacity=".47"/>
    </g>
</svg>
