<svg xmlns="http://www.w3.org/2000/svg" width="1024" height="123" viewBox="0 0 1024 123">
    <g fill="none" fill-rule="evenodd">
        <path fill="#FF7261" d="M89.197 37.722l4.151 33.811a2.56 2.56 0 0 0 2.853 2.23l.043-.006a2.56 2.56 0 0 0 2.23-2.853L94.87 41.56l7.461-5.622 5.848 2.5a2.557 2.557 0 0 0 3.36-1.357l.01-.022a2.56 2.56 0 0 0-1.353-3.348l-3.132-1.34 3.396-2.558a2.56 2.56 0 0 0 .504-3.586l-.026-.034a2.56 2.56 0 0 0-3.585-.504l-3.275 2.467-.386-3.076a2.56 2.56 0 0 0-2.845-2.223l-.023.003-.014.001a2.557 2.557 0 0 0-2.218 2.855l.753 6.007-5.202 3.92-1.78-14.503 5.09-3.814a2.557 2.557 0 0 0 .504-3.59l-.015-.019a2.56 2.56 0 0 0-3.575-.502l-2.726 2.043-.519-4.22a2.56 2.56 0 0 0-2.853-2.23l-.043.006a2.56 2.56 0 0 0-2.229 2.853l.5 4.069-2.857-1.204a2.56 2.56 0 0 0-3.348 1.353l-.01.021a2.557 2.557 0 0 0 1.358 3.361l5.58 2.351 1.25 10.186-5.976-2.537-.722-6.01a2.557 2.557 0 0 0-2.857-2.232l-.023.003a2.56 2.56 0 0 0-2.223 2.845l.37 3.079-3.774-1.602a2.56 2.56 0 0 0-3.357 1.356l-.017.04a2.56 2.56 0 0 0 1.356 3.357l3.914 1.661-2.715 2.058a2.56 2.56 0 0 0-.503 3.575l.014.02.009.01a2.557 2.557 0 0 0 3.581.494l5.07-3.841 8.58 3.642z"/>
        <path fill="#175190" d="M173.55 98.081c-.318.013-.637.02-.958.02-12.89 0-23.34-10.401-23.34-23.23 0-12.45 9.84-22.612 22.2-23.203a18.3 18.3 0 0 1-1.062-6.163c0-10.167 8.281-18.409 18.496-18.409 3.572 0 6.908 1.008 9.735 2.753a23.352 23.352 0 0 1 20.652-12.396c8.799 0 16.46 4.846 20.438 12.003a18.48 18.48 0 0 1 9.068-2.36c10.215 0 18.496 8.242 18.496 18.409a18.3 18.3 0 0 1-1.055 6.144c.204-.006.409-.008.614-.008 12.891 0 23.34 10.4 23.34 23.23 0 12.56-10.016 22.793-22.533 23.216a18.278 18.278 0 0 1 1.395 7.026c0 10.167-8.28 18.409-18.496 18.409a18.472 18.472 0 0 1-10.395-3.18 23.352 23.352 0 0 1-20.872 12.822 23.351 23.351 0 0 1-20.234-11.642 18.49 18.49 0 0 1-8.391 2c-10.215 0-18.496-8.242-18.496-18.409 0-2.49.497-4.865 1.397-7.032zM-24.831 102.025c-.289.011-.579.017-.87.017-11.719 0-21.219-9.468-21.219-21.147 0-11.333 8.945-20.584 20.183-21.122a16.68 16.68 0 0 1-.966-5.611c0-9.256 7.528-16.758 16.815-16.758 3.247 0 6.28.917 8.85 2.506a21.225 21.225 0 0 1 18.774-11.284c8 0 14.965 4.411 18.58 10.926a16.782 16.782 0 0 1 8.243-2.148c9.287 0 16.815 7.502 16.815 16.758a16.68 16.68 0 0 1-.96 5.593c.187-.005.373-.007.56-.007 11.718 0 21.218 9.468 21.218 21.147 0 11.434-9.106 20.75-20.485 21.135a16.66 16.66 0 0 1 1.269 6.396c0 9.255-7.529 16.758-16.815 16.758a16.776 16.776 0 0 1-9.45-2.895 21.226 21.226 0 0 1-18.975 11.673 21.223 21.223 0 0 1-18.394-10.598 16.79 16.79 0 0 1-7.629 1.82c-9.286 0-16.814-7.503-16.814-16.758 0-2.267.451-4.43 1.27-6.401z"/>
        <path fill="#262F56" d="M69.458 119.627c-.317.013-.636.02-.957.02-12.89 0-23.34-10.4-23.34-23.23 0-12.45 9.84-22.611 22.2-23.203a18.3 18.3 0 0 1-1.062-6.163c0-10.167 8.281-18.409 18.496-18.409 3.572 0 6.908 1.008 9.735 2.753A23.352 23.352 0 0 1 115.182 39c8.8 0 16.461 4.846 20.438 12.002a18.48 18.48 0 0 1 9.068-2.36c10.215 0 18.496 8.242 18.496 18.409a18.3 18.3 0 0 1-1.055 6.144c.204-.005.409-.008.615-.008 12.89 0 23.34 10.4 23.34 23.23 0 12.56-10.017 22.793-22.534 23.216a18.278 18.278 0 0 1 1.395 7.026c0 10.167-8.28 18.409-18.496 18.409a18.472 18.472 0 0 1-10.394-3.18 23.352 23.352 0 0 1-20.873 12.822 23.351 23.351 0 0 1-20.233-11.641 18.49 18.49 0 0 1-8.392 1.999c-10.215 0-18.496-8.242-18.496-18.409 0-2.49.497-4.865 1.397-7.032z"/>
        <path fill="#FFE4B7" d="M116.423 62.94l-2.824 1.48.54-3.134-2.285-2.22 3.157-.457 1.412-2.851 1.412 2.85 3.157.458-2.284 2.22.539 3.133zM168.804 98.182l-2.824 1.48.54-3.134-2.285-2.22 3.157-.457L168.804 91l1.412 2.851 3.157.457-2.284 2.22.539 3.134zM62.804 98.182l-2.824 1.48.54-3.134-2.285-2.22 3.157-.457L62.804 91l1.412 2.851 3.157.457-2.284 2.22.539 3.134z"/>
        <path fill="#FFF1D9" d="M88.677 69.575l-1.59.13.863-1.336-.617-1.467 1.543.405 1.209-1.038.09 1.587 1.364.826-1.486.576-.366 1.548zM143.925 69.575l-1.59.13.863-1.336-.616-1.467 1.542.405 1.209-1.038.091 1.587 1.363.826-1.486.576-.366 1.548zM41.436 60.797l-1.59.13.862-1.336-.616-1.467 1.543.405 1.209-1.038.09 1.587 1.364.825-1.487.577-.366 1.547z"/>
        <path fill="#262F56" d="M212.977 117.985c-.289.011-.579.017-.87.017-11.719 0-21.219-9.468-21.219-21.147 0-11.333 8.945-20.584 20.182-21.122a16.68 16.68 0 0 1-.965-5.611c0-9.255 7.528-16.758 16.815-16.758 3.247 0 6.279.917 8.85 2.506a21.225 21.225 0 0 1 18.774-11.284c7.999 0 14.964 4.411 18.58 10.926a16.782 16.782 0 0 1 8.243-2.148c9.287 0 16.815 7.503 16.815 16.758a16.68 16.68 0 0 1-.96 5.593c.186-.005.373-.007.56-.007C309.5 75.708 319 85.176 319 96.855c0 11.435-9.106 20.75-20.485 21.135a16.66 16.66 0 0 1 1.268 6.396c0 9.255-7.528 16.758-16.814 16.758a16.776 16.776 0 0 1-9.45-2.895 21.226 21.226 0 0 1-18.975 11.673 21.223 21.223 0 0 1-18.394-10.598 16.79 16.79 0 0 1-7.629 1.82c-9.287 0-16.815-7.503-16.815-16.758 0-2.267.452-4.429 1.27-6.401z"/>
        <path fill="#FFE4B7" d="M219.713 43.788l-2.824 1.48.54-3.135-2.285-2.219 3.157-.457 1.412-2.851 1.412 2.85 3.157.458-2.284 2.22.54 3.133zM229.804 75.182l-2.824 1.48.54-3.134-2.285-2.22 3.157-.457L229.804 68l1.412 2.851 3.157.457-2.284 2.22.539 3.134zM278.804 75.182l-2.824 1.48.54-3.134-2.285-2.22 3.157-.457L278.804 68l1.412 2.851 3.157.457-2.284 2.22.539 3.134zM17.136 46.98l-2.823 1.48.539-3.135-2.285-2.219 3.157-.457 1.412-2.851 1.412 2.85 3.157.458-2.284 2.22.54 3.133zM181.28 74.112l-2.824 1.48.54-3.134-2.285-2.22 3.157-.457 1.412-2.851 1.412 2.851 3.157.457-2.285 2.22.54 3.133z"/>
        <path fill="#FFF1D9" d="M195.97 52.019l-1.59.13.863-1.337-.616-1.466 1.543.404 1.209-1.037.09 1.587 1.364.825-1.487.577-.366 1.547zM254.39 60.199l-1.59.13.862-1.337-.616-1.466 1.543.404 1.208-1.037.091 1.587 1.364.825-1.487.577-.366 1.547zM209.39 95.199l-1.59.13.862-1.337-.616-1.466 1.543.404 1.208-1.037.091 1.587 1.364.825-1.487.577-.366 1.547z"/>
        <g>
            <path fill="#FF7261" d="M507.197 37.722l4.151 33.811a2.56 2.56 0 0 0 2.853 2.23l.043-.006a2.56 2.56 0 0 0 2.23-2.853L512.87 41.56l7.461-5.622 5.848 2.5a2.557 2.557 0 0 0 3.36-1.357l.01-.022a2.56 2.56 0 0 0-1.353-3.348l-3.132-1.34 3.396-2.558a2.56 2.56 0 0 0 .504-3.586l-.026-.034a2.56 2.56 0 0 0-3.585-.504l-3.275 2.467-.386-3.076a2.56 2.56 0 0 0-2.845-2.223l-.023.003-.014.001a2.557 2.557 0 0 0-2.218 2.855l.753 6.007-5.202 3.92-1.78-14.503 5.09-3.814a2.557 2.557 0 0 0 .504-3.59l-.015-.019a2.56 2.56 0 0 0-3.575-.502l-2.726 2.043-.519-4.22a2.56 2.56 0 0 0-2.853-2.23l-.043.006a2.56 2.56 0 0 0-2.229 2.853l.5 4.069-2.857-1.204a2.56 2.56 0 0 0-3.348 1.353l-.01.021a2.557 2.557 0 0 0 1.358 3.361l5.58 2.351 1.25 10.186-5.976-2.537-.722-6.01a2.557 2.557 0 0 0-2.857-2.232l-.023.003a2.56 2.56 0 0 0-2.223 2.845l.37 3.079-3.774-1.602a2.56 2.56 0 0 0-3.357 1.356l-.017.04a2.56 2.56 0 0 0 1.356 3.357l3.914 1.661-2.715 2.058a2.56 2.56 0 0 0-.503 3.575l.014.02.009.01a2.557 2.557 0 0 0 3.581.494l5.07-3.841 8.58 3.642z"/>
            <path fill="#175190" d="M591.55 98.081c-.318.013-.637.02-.958.02-12.89 0-23.34-10.401-23.34-23.23 0-12.45 9.84-22.612 22.2-23.203a18.3 18.3 0 0 1-1.062-6.163c0-10.167 8.281-18.409 18.496-18.409 3.572 0 6.908 1.008 9.735 2.753a23.352 23.352 0 0 1 20.652-12.396c8.799 0 16.46 4.846 20.438 12.003a18.48 18.48 0 0 1 9.068-2.36c10.215 0 18.496 8.242 18.496 18.409a18.3 18.3 0 0 1-1.055 6.144c.204-.006.409-.008.614-.008 12.891 0 23.34 10.4 23.34 23.23 0 12.56-10.016 22.793-22.533 23.216a18.278 18.278 0 0 1 1.395 7.026c0 10.167-8.28 18.409-18.496 18.409a18.472 18.472 0 0 1-10.395-3.18 23.352 23.352 0 0 1-20.872 12.822 23.351 23.351 0 0 1-20.234-11.642 18.49 18.49 0 0 1-8.391 2c-10.215 0-18.496-8.242-18.496-18.409 0-2.49.497-4.865 1.397-7.032zM393.169 102.025c-.289.011-.579.017-.87.017-11.719 0-21.219-9.468-21.219-21.147 0-11.333 8.945-20.584 20.183-21.122a16.68 16.68 0 0 1-.966-5.611c0-9.256 7.528-16.758 16.815-16.758 3.247 0 6.28.917 8.85 2.506a21.225 21.225 0 0 1 18.774-11.284c8 0 14.965 4.411 18.58 10.926a16.782 16.782 0 0 1 8.243-2.148c9.287 0 16.815 7.502 16.815 16.758a16.68 16.68 0 0 1-.96 5.593c.187-.005.373-.007.56-.007 11.718 0 21.218 9.468 21.218 21.147 0 11.434-9.106 20.75-20.485 21.135a16.66 16.66 0 0 1 1.269 6.396c0 9.255-7.529 16.758-16.815 16.758a16.776 16.776 0 0 1-9.45-2.895 21.226 21.226 0 0 1-18.975 11.673 21.223 21.223 0 0 1-18.394-10.598 16.79 16.79 0 0 1-7.629 1.82c-9.286 0-16.814-7.503-16.814-16.758 0-2.267.451-4.43 1.27-6.401z"/>
            <path fill="#262F56" d="M487.458 119.627c-.317.013-.636.02-.957.02-12.89 0-23.34-10.4-23.34-23.23 0-12.45 9.84-22.611 22.2-23.203a18.3 18.3 0 0 1-1.062-6.163c0-10.167 8.281-18.409 18.496-18.409 3.572 0 6.908 1.008 9.735 2.753A23.352 23.352 0 0 1 533.182 39c8.8 0 16.461 4.846 20.438 12.002a18.48 18.48 0 0 1 9.068-2.36c10.215 0 18.496 8.242 18.496 18.409a18.3 18.3 0 0 1-1.055 6.144c.204-.005.409-.008.615-.008 12.89 0 23.34 10.4 23.34 23.23 0 12.56-10.017 22.793-22.534 23.216a18.278 18.278 0 0 1 1.395 7.026c0 10.167-8.28 18.409-18.496 18.409a18.472 18.472 0 0 1-10.394-3.18 23.352 23.352 0 0 1-20.873 12.822 23.351 23.351 0 0 1-20.233-11.641 18.49 18.49 0 0 1-8.392 1.999c-10.215 0-18.496-8.242-18.496-18.409 0-2.49.497-4.865 1.397-7.032z"/>
            <path fill="#FFE4B7" d="M534.423 62.94l-2.824 1.48.54-3.134-2.285-2.22 3.157-.457 1.412-2.851 1.412 2.85 3.157.458-2.284 2.22.539 3.133zM586.804 98.182l-2.824 1.48.54-3.134-2.285-2.22 3.157-.457L586.804 91l1.412 2.851 3.157.457-2.284 2.22.539 3.134zM480.804 98.182l-2.824 1.48.54-3.134-2.285-2.22 3.157-.457L480.804 91l1.412 2.851 3.157.457-2.284 2.22.539 3.134z"/>
            <path fill="#FFF1D9" d="M506.677 69.575l-1.59.13.863-1.336-.617-1.467 1.543.405 1.209-1.038.09 1.587 1.364.826-1.486.576-.366 1.548zM561.925 69.575l-1.59.13.863-1.336-.616-1.467 1.542.405 1.209-1.038.091 1.587 1.363.826-1.486.576-.366 1.548zM459.436 60.797l-1.59.13.862-1.336-.616-1.467 1.543.405 1.209-1.038.09 1.587 1.364.825-1.487.577-.366 1.547z"/>
            <path fill="#FF7261" d="M366.368 28.98l-8.817 32.904a2.56 2.56 0 0 1-3.136 1.81l-.042-.011a2.56 2.56 0 0 1-1.81-3.136l7.652-28.556-6.606-6.606-6.139 1.662a2.557 2.557 0 0 1-3.14-1.813l-.005-.022a2.56 2.56 0 0 1 1.805-3.127l3.289-.89-3.007-3.008c-1-1-1-2.62 0-3.62l.03-.03c1-1 2.621-1 3.621 0l2.899 2.898.81-2.992a2.56 2.56 0 0 1 3.127-1.806l.023.006.013.004a2.557 2.557 0 0 1 1.8 3.136l-1.582 5.843 4.605 4.605 3.782-14.113-4.51-4.485a2.557 2.557 0 0 1 0-3.625l.018-.017a2.56 2.56 0 0 1 3.61 0l2.416 2.403 1.1-4.108a2.56 2.56 0 0 1 3.136-1.81l.042.011a2.56 2.56 0 0 1 1.81 3.136l-1.061 3.96 2.997-.795a2.56 2.56 0 0 1 3.127 1.806l.006.022.003.013a2.557 2.557 0 0 1-1.816 3.127l-5.851 1.551-2.656 9.913 6.27-1.68 1.552-5.852a2.557 2.557 0 0 1 3.14-1.812l.022.006a2.56 2.56 0 0 1 1.806 3.127l-.795 2.997 3.96-1.061a2.56 2.56 0 0 1 3.136 1.81l.011.042a2.56 2.56 0 0 1-1.81 3.135l-4.108 1.1 2.403 2.416a2.56 2.56 0 0 1 0 3.611l-.017.017a2.557 2.557 0 0 1-3.625 0l-4.485-4.51-9.003 2.413z"/>
            <path fill="#262F56" d="M301.089 102.025c-.289.011-.579.017-.87.017-11.72 0-21.219-9.468-21.219-21.147 0-11.333 8.945-20.584 20.182-21.122a16.68 16.68 0 0 1-.965-5.611c0-9.256 7.528-16.758 16.814-16.758 3.248 0 6.28.917 8.85 2.506a21.225 21.225 0 0 1 18.775-11.284c7.999 0 14.964 4.411 18.58 10.926a16.782 16.782 0 0 1 8.243-2.148c9.287 0 16.815 7.502 16.815 16.758a16.68 16.68 0 0 1-.96 5.593c.186-.005.372-.007.56-.007 11.718 0 21.218 9.468 21.218 21.147 0 11.434-9.106 20.75-20.485 21.135a16.66 16.66 0 0 1 1.268 6.396c0 9.255-7.528 16.758-16.815 16.758a16.776 16.776 0 0 1-9.45-2.895 21.226 21.226 0 0 1-18.974 11.673 21.223 21.223 0 0 1-18.394-10.598 16.79 16.79 0 0 1-7.63 1.82c-9.286 0-16.814-7.503-16.814-16.758 0-2.267.452-4.43 1.27-6.401z"/>
            <path fill="#FFE4B7" d="M391.804 82.182l-2.824 1.48.54-3.134-2.285-2.22 3.157-.457L391.804 75l1.412 2.851 3.157.457-2.284 2.22.539 3.134z"/>
            <path fill="#262F56" d="M630.977 117.985c-.289.011-.579.017-.87.017-11.719 0-21.219-9.468-21.219-21.147 0-11.333 8.945-20.584 20.182-21.122a16.68 16.68 0 0 1-.965-5.611c0-9.255 7.528-16.758 16.815-16.758 3.247 0 6.279.917 8.85 2.506a21.225 21.225 0 0 1 18.774-11.284c7.999 0 14.964 4.411 18.58 10.926a16.782 16.782 0 0 1 8.243-2.148c9.287 0 16.815 7.503 16.815 16.758a16.68 16.68 0 0 1-.96 5.593c.186-.005.373-.007.56-.007C727.5 75.708 737 85.176 737 96.855c0 11.435-9.106 20.75-20.485 21.135a16.66 16.66 0 0 1 1.268 6.396c0 9.255-7.528 16.758-16.814 16.758a16.776 16.776 0 0 1-9.45-2.895 21.226 21.226 0 0 1-18.975 11.673 21.223 21.223 0 0 1-18.394-10.598 16.79 16.79 0 0 1-7.629 1.82c-9.287 0-16.815-7.503-16.815-16.758 0-2.267.452-4.429 1.27-6.401z"/>
            <path fill="#FFE4B7" d="M343.056 46.98l-2.824 1.48.54-3.135-2.285-2.219 3.157-.457 1.412-2.851 1.412 2.85 3.157.458-2.285 2.22.54 3.133zM294.804 80.182l-2.824 1.48.54-3.134-2.285-2.22 3.157-.457L294.804 73l1.412 2.851 3.157.457-2.284 2.22.539 3.134zM637.713 43.788l-2.824 1.48.54-3.135-2.285-2.219 3.157-.457 1.412-2.851 1.412 2.85 3.157.458-2.284 2.22.54 3.133zM647.804 75.182l-2.824 1.48.54-3.134-2.285-2.22 3.157-.457L647.804 68l1.412 2.851 3.157.457-2.284 2.22.539 3.134zM696.804 75.182l-2.824 1.48.54-3.134-2.285-2.22 3.157-.457L696.804 68l1.412 2.851 3.157.457-2.284 2.22.539 3.134zM435.136 46.98l-2.823 1.48.539-3.135-2.285-2.219 3.157-.457 1.412-2.851 1.412 2.85 3.157.458-2.284 2.22.54 3.133zM599.28 74.112l-2.824 1.48.54-3.134-2.285-2.22 3.157-.457 1.412-2.851 1.412 2.851 3.157.457-2.285 2.22.54 3.133z"/>
            <path fill="#FFF1D9" d="M613.97 52.019l-1.59.13.863-1.337-.616-1.466 1.543.404 1.209-1.037.09 1.587 1.364.825-1.487.577-.366 1.547zM672.39 60.199l-1.59.13.862-1.337-.616-1.466 1.543.404 1.208-1.037.091 1.587 1.364.825-1.487.577-.366 1.547zM627.39 95.199l-1.59.13.862-1.337-.616-1.466 1.543.404 1.208-1.037.091 1.587 1.364.825-1.487.577-.366 1.547zM370.558 53.615l-1.59.13.863-1.337-.617-1.466 1.543.404 1.209-1.037.09 1.587 1.364.825-1.486.577-.366 1.547zM312.39 53.615l-1.59.13.862-1.337-.616-1.466 1.543.404 1.208-1.037.091 1.587 1.364.825-1.487.577-.366 1.547zM409.792 59.999l-1.59.13.863-1.336-.616-1.467 1.542.404 1.21-1.037.09 1.587 1.364.825-1.487.577-.366 1.547z"/>
        </g>
        <g>
            <path fill="#FF7261" d="M932.197 37.722l4.151 33.811a2.56 2.56 0 0 0 2.853 2.23l.043-.006a2.56 2.56 0 0 0 2.23-2.853L937.87 41.56l7.461-5.622 5.848 2.5a2.557 2.557 0 0 0 3.36-1.357l.01-.022a2.56 2.56 0 0 0-1.353-3.348l-3.132-1.34 3.396-2.558a2.56 2.56 0 0 0 .504-3.586l-.026-.034a2.56 2.56 0 0 0-3.585-.504l-3.275 2.467-.386-3.076a2.56 2.56 0 0 0-2.845-2.223l-.023.003-.014.001a2.557 2.557 0 0 0-2.218 2.855l.753 6.007-5.202 3.92-1.78-14.503 5.09-3.814a2.557 2.557 0 0 0 .504-3.59l-.015-.019a2.56 2.56 0 0 0-3.575-.502l-2.726 2.043-.519-4.22a2.56 2.56 0 0 0-2.853-2.23l-.043.006a2.56 2.56 0 0 0-2.229 2.853l.5 4.069-2.857-1.204a2.56 2.56 0 0 0-3.348 1.353l-.01.021a2.557 2.557 0 0 0 1.358 3.361l5.58 2.351 1.25 10.186-5.976-2.537-.722-6.01a2.557 2.557 0 0 0-2.857-2.232l-.023.003a2.56 2.56 0 0 0-2.223 2.845l.37 3.079-3.774-1.602a2.56 2.56 0 0 0-3.357 1.356l-.017.04a2.56 2.56 0 0 0 1.356 3.357l3.914 1.661-2.715 2.058a2.56 2.56 0 0 0-.503 3.575l.014.02.009.01a2.557 2.557 0 0 0 3.581.494l5.07-3.841 8.58 3.642z"/>
            <path fill="#175190" d="M1016.55 98.081c-.318.013-.637.02-.958.02-12.89 0-23.34-10.401-23.34-23.23 0-12.45 9.84-22.612 22.2-23.203a18.3 18.3 0 0 1-1.062-6.163c0-10.167 8.281-18.409 18.496-18.409 3.572 0 6.908 1.008 9.735 2.753a23.352 23.352 0 0 1 20.652-12.396c8.799 0 16.46 4.846 20.438 12.003a18.48 18.48 0 0 1 9.068-2.36c10.215 0 18.496 8.242 18.496 18.409a18.3 18.3 0 0 1-1.055 6.144c.204-.006.409-.008.614-.008 12.891 0 23.34 10.4 23.34 23.23 0 12.56-10.016 22.793-22.533 23.216a18.278 18.278 0 0 1 1.395 7.026c0 10.167-8.28 18.409-18.496 18.409a18.472 18.472 0 0 1-10.395-3.18 23.352 23.352 0 0 1-20.872 12.822 23.351 23.351 0 0 1-20.234-11.642 18.49 18.49 0 0 1-8.391 2c-10.215 0-18.496-8.242-18.496-18.409 0-2.49.497-4.865 1.397-7.032zM818.169 102.025c-.289.011-.579.017-.87.017-11.719 0-21.219-9.468-21.219-21.147 0-11.333 8.945-20.584 20.183-21.122a16.68 16.68 0 0 1-.966-5.611c0-9.256 7.528-16.758 16.815-16.758 3.247 0 6.28.917 8.85 2.506a21.225 21.225 0 0 1 18.774-11.284c8 0 14.965 4.411 18.58 10.926a16.782 16.782 0 0 1 8.243-2.148c9.287 0 16.815 7.502 16.815 16.758a16.68 16.68 0 0 1-.96 5.593c.187-.005.373-.007.56-.007 11.718 0 21.218 9.468 21.218 21.147 0 11.434-9.106 20.75-20.485 21.135a16.66 16.66 0 0 1 1.269 6.396c0 9.255-7.529 16.758-16.815 16.758a16.776 16.776 0 0 1-9.45-2.895 21.226 21.226 0 0 1-18.975 11.673 21.223 21.223 0 0 1-18.394-10.598 16.79 16.79 0 0 1-7.629 1.82c-9.286 0-16.814-7.503-16.814-16.758 0-2.267.451-4.43 1.27-6.401z"/>
            <path fill="#262F56" d="M912.458 119.627c-.317.013-.636.02-.957.02-12.89 0-23.34-10.4-23.34-23.23 0-12.45 9.84-22.611 22.2-23.203a18.3 18.3 0 0 1-1.062-6.163c0-10.167 8.281-18.409 18.496-18.409 3.572 0 6.908 1.008 9.735 2.753A23.352 23.352 0 0 1 958.182 39c8.8 0 16.461 4.846 20.438 12.002a18.48 18.48 0 0 1 9.068-2.36c10.215 0 18.496 8.242 18.496 18.409a18.3 18.3 0 0 1-1.055 6.144c.204-.005.409-.008.615-.008 12.89 0 23.34 10.4 23.34 23.23 0 12.56-10.017 22.793-22.534 23.216a18.278 18.278 0 0 1 1.395 7.026c0 10.167-8.28 18.409-18.496 18.409a18.472 18.472 0 0 1-10.394-3.18 23.352 23.352 0 0 1-20.873 12.822 23.351 23.351 0 0 1-20.233-11.641 18.49 18.49 0 0 1-8.392 1.999c-10.215 0-18.496-8.242-18.496-18.409 0-2.49.497-4.865 1.397-7.032z"/>
            <path fill="#FFE4B7" d="M959.423 62.94l-2.824 1.48.54-3.134-2.285-2.22 3.157-.457 1.412-2.851 1.412 2.85 3.157.458-2.284 2.22.539 3.133zM1011.804 98.182l-2.824 1.48.54-3.134-2.285-2.22 3.157-.457 1.412-2.851 1.412 2.851 3.157.457-2.284 2.22.539 3.134zM905.804 98.182l-2.824 1.48.54-3.134-2.285-2.22 3.157-.457L905.804 91l1.412 2.851 3.157.457-2.284 2.22.539 3.134z"/>
            <path fill="#FFF1D9" d="M931.677 69.575l-1.59.13.863-1.336-.617-1.467 1.543.405 1.209-1.038.09 1.587 1.364.826-1.486.576-.366 1.548zM986.925 69.575l-1.59.13.863-1.336-.616-1.467 1.542.405 1.209-1.038.091 1.587 1.363.826-1.486.576-.366 1.548zM884.436 60.797l-1.59.13.862-1.336-.616-1.467 1.543.405 1.209-1.038.09 1.587 1.364.825-1.487.577-.366 1.547z"/>
            <path fill="#FF7261" d="M791.368 28.98l-8.817 32.904a2.56 2.56 0 0 1-3.136 1.81l-.042-.011a2.56 2.56 0 0 1-1.81-3.136l7.652-28.556-6.606-6.606-6.139 1.662a2.557 2.557 0 0 1-3.14-1.813l-.005-.022a2.56 2.56 0 0 1 1.805-3.127l3.289-.89-3.007-3.008c-1-1-1-2.62 0-3.62l.03-.03c1-1 2.621-1 3.621 0l2.899 2.898.81-2.992a2.56 2.56 0 0 1 3.127-1.806l.023.006.013.004a2.557 2.557 0 0 1 1.8 3.136l-1.582 5.843 4.605 4.605 3.782-14.113-4.51-4.485a2.557 2.557 0 0 1 0-3.625l.018-.017a2.56 2.56 0 0 1 3.61 0l2.416 2.403 1.1-4.108a2.56 2.56 0 0 1 3.136-1.81l.042.011a2.56 2.56 0 0 1 1.81 3.136l-1.061 3.96 2.997-.795a2.56 2.56 0 0 1 3.127 1.806l.006.022.003.013a2.557 2.557 0 0 1-1.816 3.127l-5.851 1.551-2.656 9.913 6.27-1.68 1.552-5.852a2.557 2.557 0 0 1 3.14-1.812l.022.006a2.56 2.56 0 0 1 1.806 3.127l-.795 2.997 3.96-1.061a2.56 2.56 0 0 1 3.136 1.81l.011.042a2.56 2.56 0 0 1-1.81 3.135l-4.108 1.1 2.403 2.416a2.56 2.56 0 0 1 0 3.611l-.017.017a2.557 2.557 0 0 1-3.625 0l-4.485-4.51-9.003 2.413z"/>
            <path fill="#262F56" d="M726.089 102.025c-.289.011-.579.017-.87.017-11.72 0-21.219-9.468-21.219-21.147 0-11.333 8.945-20.584 20.182-21.122a16.68 16.68 0 0 1-.965-5.611c0-9.256 7.528-16.758 16.814-16.758 3.248 0 6.28.917 8.85 2.506a21.225 21.225 0 0 1 18.775-11.284c7.999 0 14.964 4.411 18.58 10.926a16.782 16.782 0 0 1 8.243-2.148c9.287 0 16.815 7.502 16.815 16.758a16.68 16.68 0 0 1-.96 5.593c.186-.005.372-.007.56-.007 11.718 0 21.218 9.468 21.218 21.147 0 11.434-9.106 20.75-20.485 21.135a16.66 16.66 0 0 1 1.268 6.396c0 9.255-7.528 16.758-16.815 16.758a16.776 16.776 0 0 1-9.45-2.895 21.226 21.226 0 0 1-18.974 11.673 21.223 21.223 0 0 1-18.394-10.598 16.79 16.79 0 0 1-7.63 1.82c-9.286 0-16.814-7.503-16.814-16.758 0-2.267.452-4.43 1.27-6.401z"/>
            <path fill="#FFE4B7" d="M816.804 82.182l-2.824 1.48.54-3.134-2.285-2.22 3.157-.457L816.804 75l1.412 2.851 3.157.457-2.284 2.22.539 3.134zM768.056 46.98l-2.824 1.48.54-3.135-2.285-2.219 3.157-.457 1.412-2.851 1.412 2.85 3.157.458-2.285 2.22.54 3.133zM719.804 80.182l-2.824 1.48.54-3.134-2.285-2.22 3.157-.457L719.804 73l1.412 2.851 3.157.457-2.284 2.22.539 3.134zM860.136 46.98l-2.823 1.48.539-3.135-2.285-2.219 3.157-.457 1.412-2.851 1.412 2.85 3.157.458-2.284 2.22.54 3.133zM1024.28 74.112l-2.824 1.48.54-3.134-2.285-2.22 3.157-.457 1.412-2.851 1.412 2.851 3.157.457-2.285 2.22.54 3.133z"/>
            <path fill="#FFF1D9" d="M795.558 53.615l-1.59.13.863-1.337-.617-1.466 1.543.404 1.209-1.037.09 1.587 1.364.825-1.486.577-.366 1.547zM737.39 53.615l-1.59.13.862-1.337-.616-1.466 1.543.404 1.208-1.037.091 1.587 1.364.825-1.487.577-.366 1.547zM834.792 59.999l-1.59.13.863-1.336-.616-1.467 1.542.404 1.21-1.037.09 1.587 1.364.825-1.487.577-.366 1.547z"/>
        </g>
    </g>
</svg>
