<svg xmlns="http://www.w3.org/2000/svg" width="70" height="47" viewBox="0 0 70 47">
    <g fill="none" fill-rule="evenodd">
        <path fill="#01939A" d="M13.3 23.5c0-1.787 3.374-5.261 7.593-5.261 2.812 0 5.706 1.284 8.682 3.853.835-1.4 1.78-1.887 2.837-1.463 1.584.636 1.584 6.164 0 6.597-1.057.289-2.002-.413-2.837-2.105-2.378 2.427-5.273 3.64-8.682 3.64-5.114 0-7.593-3.474-7.593-5.261zM29.4 41.739c0-1.787 3.374-5.261 7.593-5.261 2.812 0 5.706 1.284 8.682 3.853.835-1.4 1.78-1.888 2.837-1.463 1.584.636 1.584 6.164 0 6.597-1.057.289-2.002-.413-2.837-2.106C43.297 45.786 40.402 47 36.993 47c-5.114 0-7.593-3.474-7.593-5.261zM49.7 18.59c0-1.787 3.374-5.262 7.593-5.262 2.812 0 5.706 1.285 8.682 3.853.835-1.4 1.78-1.887 2.837-1.463 1.584.636 1.584 6.165 0 6.598-1.057.288-2.002-.413-2.837-2.106-2.378 2.427-5.273 3.64-8.682 3.64-5.114 0-7.593-3.473-7.593-5.26z"/>
        <ellipse cx="3.85" cy="3.157" fill="#BAEAF0" rx="3.15" ry="3.157"/>
        <ellipse cx="1.75" cy="14.381" fill="#BAEAF0" rx="1.75" ry="1.754"/>
        <ellipse cx="6.3" cy="22.448" fill="#BAEAF0" rx="1.4" ry="1.403"/>
        <ellipse cx="7" cy="16.836" fill="#A8DBE0" rx="1" ry="1"/>
    </g>
</svg>
