<svg xmlns="http://www.w3.org/2000/svg" width="96" height="108" viewBox="0 0 96 108">
    <g fill="none" fill-rule="evenodd">
        <path fill="#01939A" d="M0 62.5C0 59.953 4.82 55 10.847 55c4.018 0 8.152 1.83 12.403 5.492 1.193-1.995 2.543-2.69 4.052-2.085 2.264.907 2.264 8.788 0 9.405-1.509.411-2.86-.59-4.052-3.002C19.852 68.27 15.718 70 10.847 70 3.541 70 0 65.047 0 62.5zM23 91.5c0-2.547 4.82-7.5 10.847-7.5 4.018 0 8.152 1.83 12.403 5.492 1.193-1.995 2.543-2.69 4.052-2.085 2.264.907 2.264 8.788 0 9.405-1.509.411-2.86-.59-4.052-3.002C42.852 97.27 38.718 99 33.847 99 26.541 99 23 94.047 23 91.5zM29 41.5c0-2.547 4.82-7.5 10.847-7.5 4.018 0 8.152 1.83 12.403 5.492 1.193-1.995 2.543-2.69 4.052-2.085 2.264.907 2.264 8.788 0 9.405-1.509.411-2.86-.59-4.052-3.002C48.852 47.27 44.718 49 39.847 49 32.541 49 29 44.047 29 41.5zM52 67.5c0-2.547 4.82-7.5 10.847-7.5 4.018 0 8.152 1.83 12.403 5.492 1.193-1.995 2.543-2.69 4.052-2.085 2.264.907 2.264 8.788 0 9.405-1.509.411-2.86-.59-4.052-3.002C71.852 73.27 67.718 75 62.847 75 55.541 75 52 70.047 52 67.5zM67 100.5c0-2.547 4.82-7.5 10.847-7.5 4.018 0 8.152 1.83 12.403 5.492 1.193-1.995 2.543-2.69 4.052-2.085 2.264.907 2.264 8.788 0 9.405-1.509.411-2.86-.59-4.052-3.002-3.398 3.46-7.532 5.19-12.403 5.19C70.541 108 67 103.047 67 100.5zM67 26.5c0-2.547 4.82-7.5 10.847-7.5 4.018 0 8.152 1.83 12.403 5.492 1.193-1.995 2.543-2.69 4.052-2.085 2.264.907 2.264 8.788 0 9.405-1.509.411-2.86-.59-4.052-3.002C86.852 32.27 82.718 34 77.847 34 70.541 34 67 29.047 67 26.5z"/>
        <circle cx="15.5" cy="4.5" r="4.5" fill="#C9E8EC" opacity=".663"/>
        <circle cx="12.5" cy="20.5" r="2.5" fill="#C9E8EC" opacity=".663"/>
        <circle cx="19" cy="32" r="2" fill="#C9E8EC" opacity=".663"/>
        <circle cx="18" cy="42" r="1" fill="#C9E8EC" opacity=".663"/>
    </g>
</svg>
