<svg xmlns="http://www.w3.org/2000/svg" width="205" height="169" viewBox="0 0 205 169">
    <g fill="none" fill-rule="evenodd" transform="translate(-29 -35)">
        <path fill="#7D6257" d="M115.176 144.76c-11.127-3.68-20.098-10.575-26.915-20.683-10.226-15.162-2.028-20.363-12.465-33.313-6.842-8.488-21.077-12.236-29.402-8.989-8.326 3.248-17.375 15.074-16.429 29.226.947 14.152 14.3 21.533 25.837 21.954-5.06 9.568 7.076 25.538 24.344 17.662-.626 9.398 12.164 14.294 18 10.737 5.65-3.443 11.326-8.975 17.03-16.594z"/>
        <path fill="#AA8A77" d="M111.634 170.662c-15.374 5.298-22.172 9.845-20.393 13.64 1.78 3.797 11.886 2.387 30.321-4.23l-9.928-9.41zM143.147 182.932c-12.443 10.446-17.152 17.124-14.129 20.034 3.023 2.91 11.947-2.022 26.772-14.795l-12.643-5.239z"/>
        <path fill="#B39684" d="M115.124 142.311c-10.196-1.054-15.712 4.825-16.549 17.637-1.255 19.218 36.462 35.218 56.536 33.52 13.383-1.133 22.71-11.259 27.983-30.376l-67.97-20.781z"/>
        <g transform="rotate(17 -7.08 394.586)">
            <path fill="#B39684" d="M70.574 31.858c-62.787 0-80.635 98.266 0 98.266 80.634 0 62.786-98.266 0-98.266z"/>
            <path fill="#7D6257" d="M67.439 31.94a59.069 59.069 0 0 1 6.507.014c-.053 8.004-1.124 12.006-3.214 12.006-2.092 0-3.19-4.006-3.293-12.02zm-3.645.311c-.261 6.201-1.311 9.302-3.151 9.302-1.726 0-2.775-2.729-3.147-8.185a54.504 54.504 0 0 1 6.298-1.117zm19.718 1.084c-.334 5.478-1.366 8.218-3.095 8.218-1.842 0-2.913-3.107-3.213-9.32 2.166.25 4.27.62 6.308 1.102zM91.01 42.253c-.72-8.443-1.622-14.107-2.707-16.993-3.27-8.697-6.377-19.37 1.077-22.25 9.174-3.542 16.437 7.981 12.931 20.043-1.593 5.482-5.36 11.882-11.301 19.2zM48.912 42.312c1.163-8.394 2.362-14.003 3.598-16.83 3.723-8.513 7.387-19.011.095-22.274C43.63-.807 35.77 10.323 38.637 22.551c1.302 5.557 4.727 12.144 10.275 19.761z"/>
            <path fill="#E4D8C2" d="M111.878 116.234c12.78 0 23.14-10.369 23.14-23.16 0-12.79-10.36-23.158-23.14-23.158-12.78 0-24.9 13.27-24.9 23.159s12.12 23.159 24.9 23.159z"/>
            <ellipse cx="59.96" cy="68.811" fill="#665251" rx="4.035" ry="4.013"/>
            <ellipse cx="89.015" cy="68.811" fill="#665251" rx="4.035" ry="4.013"/>
            <path fill="#665251" d="M74.526 70.157c-1.717 0-4.5-2.315-3.434-3.356 1.066-1.042 5.756-1.087 6.868 0s-1.717 3.356-3.434 3.356z"/>
            <path fill="#665251" d="M69.633 72.626l4.578-3.703 5.273 3.703-1.665.9-3.26-3.828-3.216 4.523z"/>
            <path fill="#E4D8C2" d="M26.622 120.05C12.14 120.05.398 108.43.398 94.096c0-14.334 11.741-25.954 26.224-25.954 14.484 0 28.22 14.871 28.22 25.954 0 11.082-13.736 25.954-28.22 25.954z"/>
        </g>
        <path fill="#B39684" stroke="#9F7D69" stroke-linecap="round" stroke-width="1.68" d="M129.904 138.545c7.061-6.803 11.883-8.49 14.466-5.06 2.583 3.429-.883 8.378-10.397 14.847M177.38 157.968c7.061-6.803 11.883-8.49 14.466-5.06 2.582 3.43-.883 8.378-10.397 14.847"/>
        <ellipse cx="220.517" cy="95.45" fill="#C9E8EC" rx="2.002" ry="1.996"/>
        <ellipse cx="226.121" cy="85.867" fill="#C9E8EC" rx="3.603" ry="3.594"/>
        <ellipse cx="228.924" cy="71.892" fill="#C9E8EC" rx="4.804" ry="4.792"/>
    </g>
</svg>
