<svg xmlns="http://www.w3.org/2000/svg" width="98" height="76" viewBox="0 0 98 76">
    <g fill="none" fill-rule="evenodd" transform="rotate(-17 -37.57 73.052)">
        <path fill="#F0E6A1" d="M87.423 81.598c5.637-3.653 9.203-6.501 10.699-8.543 4.881-6.663 4.006-13.113-.89-15.089-7.148-2.885-10.417 4.993-9.809 23.632zM66.533 93.289c-5.141 4.322-8.907 6.9-11.297 7.734-7.798 2.72-13.71-.002-14.168-5.263-.668-7.679 7.82-8.503 25.465-2.471z"/>
        <g transform="rotate(-30 86.148 9.926)">
            <path fill="#F7EEAD" d="M37.365 12.89c-6.564 0-13 .478-18.113 3.035-26.194 13.098-29.91 52.8 18.113 52.8 48.272 0 43.738-39.917 17.18-52.8-5.02-2.436-10.79-3.035-17.18-3.035z"/>
            <ellipse cx="15.75" cy="46.723" fill="#F7CDA7" rx="7.754" ry="7.724"/>
            <ellipse cx="52.339" cy="46.723" fill="#F7CDA7" rx="7.754" ry="7.724"/>
            <g fill="#F7EEAD">
                <path d="M27.872 18.6c-.792-1.195-1.8-4.768.285-4.869 1.977-.095 4.29-1.357 6.72-2.427 6.383-2.81 10.292-9.87 13.377-6.157C54.14 12.232 30.969 23.272 27.872 18.6z"/>
                <path d="M32.295 16.593c-1.041-3.987 15.02-10.783 17.43-4.452 2.408 6.33-16.39 8.44-17.43 4.452z"/>
                <path d="M31.823 17.406c.102-4.117 17.426-6.237 17.99.508.565 6.745-18.092 3.61-17.99-.508z"/>
            </g>
            <ellipse cx="21.687" cy="41.292" fill="#665251" rx="3.029" ry="3.017"/>
            <ellipse cx="46.402" cy="41.292" fill="#665251" rx="3.029" ry="3.017"/>
            <path fill="#F9D78D" d="M32.55 36.585c-4.31 0-5.558 4.69 0 4.69 5.56 0 4.31-4.69 0-4.69z"/>
            <path fill="#F9D78D" d="M32.55 45.137c-3.466 0-4.47-4.69 0-4.69 4.472 0 3.467 4.69 0 4.69z"/>
        </g>
        <path fill="#F1C67F" d="M79.423 103.048l4.539 3.66c-.055 1.602.167 2.326.664 2.174.497-.152.707-1.127.63-2.925l-4.085-5.61-1.748 2.701zM92.154 95.474l.598 5.8c1.372.827 1.859 1.407 1.46 1.741-.398.335-1.33-.02-2.796-1.064l-2.48-6.482 3.218.005z"/>
        <path fill="#F7EEAD" d="M59.539 84.965c.733 11.311 3.886 17.834 9.46 19.569 8.36 2.602 24.264-6.03 26.12-15.317 1.239-6.192-2.398-11.565-10.91-16.12L59.54 84.965z"/>
        <path fill="#F7EEAD" d="M74.949 102.76c2.698 2.879 5.082 3.566 7.154 2.061 2.07-1.505 2.175-4 .311-7.486l-7.465 5.424zM84.397 96.361c2.698 2.88 5.082 3.567 7.153 2.062 2.072-1.505 2.175-4 .312-7.486l-7.465 5.424z"/>
        <circle cx="15.638" cy="63.664" r="1.5" fill="#C9E8EC"/>
        <circle cx="13.212" cy="52.44" r="2.7" fill="#C9E8EC"/>
        <circle cx="15.912" cy="38.94" r="3.6" fill="#C9E8EC"/>
    </g>
</svg>
