<svg xmlns="http://www.w3.org/2000/svg" width="444" height="41" viewBox="0 0 444 41">
    <g fill="#FFF" fill-rule="evenodd">
        <path d="M0 0v31.915l40.99 7.153a70 70 0 0 0 22.361.276l39.058-5.826a70 70 0 0 1 21.472.127l34.133 5.504a70 70 0 0 0 23.118-.139l29.346-5.094a70 70 0 0 1 23.069-.147l34.095 5.473a70 70 0 0 0 22.09.016l34.883-5.548a70 70 0 0 1 22.562.094l31.416 5.264a70 70 0 0 0 23.245-.02L444 31.916V0H0z" opacity=".252"/>
        <path d="M0 0v41.015l37.71-8.605a70 70 0 0 1 28.975-.46l32.526 6.345a70 70 0 0 0 27.846-.211l27.531-5.806a70 70 0 0 1 29.942.23l22.557 5.121a70 70 0 0 0 29.88.244l27.404-5.753a70 70 0 0 1 28.635-.027l28.264 5.879a70 70 0 0 0 29.235-.156l24.656-5.402a70 70 0 0 1 30.104.03L444 41.016V0H0z" opacity=".362"/>
    </g>
</svg>
